# xmcd
#
# Track frame offsets:
#	150
#	10863
#	21598
#	33413
#	43278
#	54797
#	64205
#	78045
#	93400
#	104668
#	119984
#	132046
#
# Disc length: 1990 seconds
#
# Revision: 1
# Processed by: cddbd v1.5.2PL0 Copyright (c) Steve Scherf et al.
# Submitted via: EasyCDDAExtractor 16.0.1.1
#
DISCID=a207c40c
DTITLE=Melba Montgomery - Aching  Breaking Heart
DYEAR=1974
DGENRE=Country
TTITLE0=Aching  Breaking Heart
TTITLE1=As Far As My Forgetting's Got
TTITLE2=He's My Man
TTITLE3=My Arms Stay Open Late
TTITLE4=Together Again
TTITLE5=Foolin' Around
TTITLE6=He Called Me Baby
TTITLE7=Elroy Crossing
TTITLE8=Walk On Me
TTITLE9=Hungry Eyes
TTITLE10=The Star
TTITLE11=Carolina In My Mind
EXTD=
EXTT0=
EXTT1=
EXTT2=
EXTT3=
EXTT4=
EXTT5=
EXTT6=
EXTT7=
EXTT8=
EXTT9=
EXTT10=
EXTT11=
PLAYORDER=
